<svg width="24" height="25" viewBox="0 0 24 25" fill="none" xmlns="http://www.w3.org/2000/svg">
<g id="Group">
<path id="Vector" d="M14 14V8.5C14 7.43913 13.5786 6.42172 12.8284 5.67157C12.0783 4.92143 11.0609 4.5 10 4.5C8.93913 4.5 7.92172 4.92143 7.17157 5.67157C6.42143 6.42172 6 7.43913 6 8.5V14C6 15.7239 6.68482 17.3772 7.90381 18.5962C9.12279 19.8152 10.7761 20.5 12.5 20.5C14.2239 20.5 15.8772 19.8152 17.0962 18.5962C18.3152 17.3772 19 15.7239 19 14V4.5H21V14C21 16.2543 20.1045 18.4163 18.5104 20.0104C16.9163 21.6045 14.7543 22.5 12.5 22.5C10.2457 22.5 8.08365 21.6045 6.48959 20.0104C4.89553 18.4163 4 16.2543 4 14V8.5C4 6.9087 4.63214 5.38258 5.75736 4.25736C6.88258 3.13214 8.4087 2.5 10 2.5C11.5913 2.5 13.1174 3.13214 14.2426 4.25736C15.3679 5.38258 16 6.9087 16 8.5V14C16 14.9283 15.6313 15.8185 14.9749 16.4749C14.3185 17.1313 13.4283 17.5 12.5 17.5C11.5717 17.5 10.6815 17.1313 10.0251 16.4749C9.36875 15.8185 9 14.9283 9 14V8.5H11V14C11 14.3978 11.158 14.7794 11.4393 15.0607C11.7206 15.342 12.1022 15.5 12.5 15.5C12.8978 15.5 13.2794 15.342 13.5607 15.0607C13.842 14.7794 14 14.3978 14 14Z" fill="#09121F"/>
</g>
</svg>
