<svg width="41" height="41" viewBox="0 0 41 41" fill="none" xmlns="http://www.w3.org/2000/svg">
<g id="Image">
<path id="Vector" d="M34.25 6.75H6.75C6.08696 6.75 5.45107 7.01339 4.98223 7.48223C4.51339 7.95107 4.25 8.58696 4.25 9.25V31.75C4.25 32.413 4.51339 33.0489 4.98223 33.5178C5.45107 33.9866 6.08696 34.25 6.75 34.25H34.25C34.913 34.25 35.5489 33.9866 36.0178 33.5178C36.4866 33.0489 36.75 32.413 36.75 31.75V9.25C36.75 8.58696 36.4866 7.95107 36.0178 7.48223C35.5489 7.01339 34.913 6.75 34.25 6.75ZM34.25 9.25V25.3047L30.1766 21.2328C29.9444 21.0006 29.6688 20.8164 29.3654 20.6907C29.0621 20.5651 28.7369 20.5004 28.4086 20.5004C28.0802 20.5004 27.7551 20.5651 27.4518 20.6907C27.1484 20.8164 26.8728 21.0006 26.6406 21.2328L23.5156 24.3578L16.6406 17.4828C16.1718 17.0143 15.5362 16.7512 14.8734 16.7512C14.2107 16.7512 13.575 17.0143 13.1062 17.4828L6.75 23.8391V9.25H34.25ZM6.75 27.375L14.875 19.25L27.375 31.75H6.75V27.375ZM34.25 31.75H30.9109L25.2859 26.125L28.4109 23L34.25 28.8406V31.75ZM23 16.125C23 15.7542 23.11 15.3916 23.316 15.0833C23.522 14.775 23.8149 14.5346 24.1575 14.3927C24.5001 14.2508 24.8771 14.2137 25.2408 14.286C25.6045 14.3584 25.9386 14.537 26.2008 14.7992C26.463 15.0614 26.6416 15.3955 26.714 15.7592C26.7863 16.1229 26.7492 16.4999 26.6073 16.8425C26.4654 17.1851 26.225 17.478 25.9167 17.684C25.6084 17.89 25.2458 18 24.875 18C24.3777 18 23.9008 17.8025 23.5492 17.4508C23.1975 17.0992 23 16.6223 23 16.125Z" fill="#343541"/>
</g>
</svg>
