<svg width="39" height="31" viewBox="0 0 39 31" fill="none" xmlns="http://www.w3.org/2000/svg">
<g id="&#240;&#159;&#166;&#134; icon &#34;keyboard&#34;">
<g id="Group">
<g id="Group_2">
<path id="Vector" d="M11.5787 1.75H28.1576C29.2997 1.75 30.3129 1.78356 31.2155 1.90104C36.0603 2.38771 37.3682 4.46868 37.3682 10.141V20.2101C37.3682 25.8824 36.0603 27.9634 31.2155 28.4501C30.3129 28.5676 29.2997 28.6011 28.1576 28.6011H11.5787C10.4366 28.6011 9.42343 28.5676 8.5208 28.4501C3.67606 27.9634 2.36816 25.8824 2.36816 20.2101V10.141C2.36816 4.46868 3.67606 2.38771 8.5208 1.90104C9.42343 1.78356 10.4366 1.75 11.5787 1.75Z" stroke="#343541" stroke-width="3" stroke-linecap="round" stroke-linejoin="round"/>
<path id="Vector_2" d="M22.6313 11.8193H29.0787" stroke="#343541" stroke-width="3" stroke-linecap="round" stroke-linejoin="round"/>
<path id="Vector_3" d="M10.6577 21.0493H10.6946H29.0788" stroke="#343541" stroke-width="3" stroke-linecap="round" stroke-linejoin="round"/>
</g>
<path id="Vector_4" d="M16.3584 11.8193H16.375" stroke="#343541" stroke-width="3" stroke-linecap="round" stroke-linejoin="round"/>
<path id="Vector_5" d="M10.832 11.8193H10.8486" stroke="#343541" stroke-width="3" stroke-linecap="round" stroke-linejoin="round"/>
</g>
</g>
</svg>
