<svg width="24" height="24" viewBox="0 0 24 24" fill="none" xmlns="http://www.w3.org/2000/svg">
<g id="Edit/Layer">
<g id="Icon">
<path fill-rule="evenodd" clip-rule="evenodd" d="M9.9032 13.61L2.26606 9.61C2.00362 9.42356 1.84672 9.11489 1.84672 8.785C1.84672 8.4551 2.00362 8.14643 2.26606 7.96L9.9032 3.96C10.302 3.75579 10.7409 3.64971 11.1857 3.64999C11.5909 3.65226 11.9913 3.74075 12.3621 3.91L20.8382 7.91C21.1451 8.08611 21.3357 8.42121 21.3357 8.785C21.3357 9.14879 21.1451 9.48388 20.8382 9.66L12.3621 13.66C11.9913 13.8292 11.5909 13.9177 11.1857 13.92C10.7409 13.9203 10.302 13.8142 9.9032 13.61ZM11.2339 5.11C11.0165 5.10843 10.8019 5.15981 10.6071 5.26L3.85713 8.75L10.6071 12.23C10.8019 12.3302 11.0165 12.3816 11.2339 12.38C11.4337 12.3823 11.6315 12.3378 11.8125 12.25L19.2471 8.75L11.8125 5.24C11.6315 5.15216 11.4337 5.10773 11.2339 5.11Z" fill="black"/>
<path d="M20.5296 12.05L11.9957 15.74C11.4738 15.996 10.8687 15.996 10.3468 15.74L2.78677 12.06C2.55079 11.9475 2.27483 11.974 2.06286 12.1297C1.85088 12.2854 1.7351 12.5465 1.75911 12.8147C1.78312 13.0829 1.94329 13.3175 2.17927 13.43L9.71999 17.05C10.1879 17.29 10.7023 17.4165 11.2243 17.42C11.6908 17.4212 12.1518 17.3153 12.5743 17.11L21.0793 13.44C21.2621 13.3649 21.4075 13.2159 21.4821 13.0272C21.5567 12.8386 21.554 12.6265 21.4746 12.44C21.312 12.0676 20.8945 11.8953 20.5296 12.05Z" fill="black"/>
<path d="M20.5296 15.13L11.9957 18.82C11.4738 19.076 10.8687 19.076 10.3468 18.82L2.78677 15.15C2.55073 15.0247 2.26747 15.0433 2.04864 15.1987C1.82981 15.354 1.71051 15.6211 1.73776 15.8946C1.76501 16.1682 1.93444 16.4043 2.17927 16.51L9.71999 20.13C10.1833 20.3733 10.6953 20.5001 11.2146 20.5C11.6715 20.4974 12.1223 20.3917 12.5357 20.19L21.0407 16.52C21.2235 16.4449 21.3689 16.2959 21.4435 16.1072C21.5181 15.9186 21.5154 15.7065 21.4361 15.52C21.2716 15.172 20.8834 15.0049 20.5296 15.13Z" fill="black"/>
</g>
</g>
</svg>
